<mxfile host="app.diagrams.net" agent="Mozilla/5.0 (Windows NT 10.0; Win64; x64) AppleWebKit/537.36 (KHTML, like Gecko) Chrome/135.0.0.0 Safari/537.36 Edg/135.0.0.0" version="26.2.12">
  <diagram name="Página-1" id="TnbNtFyKTUY8tGY1flDB">
    <mxGraphModel dx="403" dy="248" grid="1" gridSize="10" guides="1" tooltips="1" connect="1" arrows="1" fold="1" page="1" pageScale="1" pageWidth="827" pageHeight="1169" math="0" shadow="0">
      <root>
        <mxCell id="0" />
        <mxCell id="1" parent="0" />
        <mxCell id="PeIqdp6JVHGe4duX-pOj-21" style="edgeStyle=orthogonalEdgeStyle;rounded=0;orthogonalLoop=1;jettySize=auto;html=1;endArrow=none;startFill=0;" edge="1" parent="1" source="PeIqdp6JVHGe4duX-pOj-1" target="PeIqdp6JVHGe4duX-pOj-20">
          <mxGeometry relative="1" as="geometry" />
        </mxCell>
        <mxCell id="PeIqdp6JVHGe4duX-pOj-28" style="rounded=0;orthogonalLoop=1;jettySize=auto;html=1;endArrow=none;startFill=0;" edge="1" parent="1" source="PeIqdp6JVHGe4duX-pOj-1" target="PeIqdp6JVHGe4duX-pOj-8">
          <mxGeometry relative="1" as="geometry" />
        </mxCell>
        <mxCell id="PeIqdp6JVHGe4duX-pOj-29" style="rounded=0;orthogonalLoop=1;jettySize=auto;html=1;endArrow=none;startFill=0;" edge="1" parent="1" source="PeIqdp6JVHGe4duX-pOj-1" target="PeIqdp6JVHGe4duX-pOj-12">
          <mxGeometry relative="1" as="geometry" />
        </mxCell>
        <mxCell id="PeIqdp6JVHGe4duX-pOj-30" style="rounded=0;orthogonalLoop=1;jettySize=auto;html=1;endArrow=none;startFill=0;" edge="1" parent="1" source="PeIqdp6JVHGe4duX-pOj-1" target="PeIqdp6JVHGe4duX-pOj-9">
          <mxGeometry relative="1" as="geometry" />
        </mxCell>
        <mxCell id="PeIqdp6JVHGe4duX-pOj-31" style="rounded=0;orthogonalLoop=1;jettySize=auto;html=1;endArrow=none;startFill=0;" edge="1" parent="1" source="PeIqdp6JVHGe4duX-pOj-1" target="PeIqdp6JVHGe4duX-pOj-10">
          <mxGeometry relative="1" as="geometry" />
        </mxCell>
        <mxCell id="PeIqdp6JVHGe4duX-pOj-32" style="rounded=0;orthogonalLoop=1;jettySize=auto;html=1;endArrow=none;startFill=0;" edge="1" parent="1" source="PeIqdp6JVHGe4duX-pOj-1" target="PeIqdp6JVHGe4duX-pOj-11">
          <mxGeometry relative="1" as="geometry" />
        </mxCell>
        <mxCell id="PeIqdp6JVHGe4duX-pOj-1" value="libro" style="rounded=0;whiteSpace=wrap;html=1;fillColor=none;" vertex="1" parent="1">
          <mxGeometry x="294" y="90" width="80" height="40" as="geometry" />
        </mxCell>
        <mxCell id="PeIqdp6JVHGe4duX-pOj-18" style="rounded=0;orthogonalLoop=1;jettySize=auto;html=1;endArrow=none;startFill=0;" edge="1" parent="1" source="PeIqdp6JVHGe4duX-pOj-2" target="PeIqdp6JVHGe4duX-pOj-17">
          <mxGeometry relative="1" as="geometry" />
        </mxCell>
        <mxCell id="PeIqdp6JVHGe4duX-pOj-26" style="rounded=0;orthogonalLoop=1;jettySize=auto;html=1;endArrow=none;startFill=0;" edge="1" parent="1" source="PeIqdp6JVHGe4duX-pOj-2" target="PeIqdp6JVHGe4duX-pOj-6">
          <mxGeometry relative="1" as="geometry" />
        </mxCell>
        <mxCell id="PeIqdp6JVHGe4duX-pOj-27" style="rounded=0;orthogonalLoop=1;jettySize=auto;html=1;endArrow=none;startFill=0;" edge="1" parent="1" source="PeIqdp6JVHGe4duX-pOj-2" target="PeIqdp6JVHGe4duX-pOj-7">
          <mxGeometry relative="1" as="geometry" />
        </mxCell>
        <mxCell id="PeIqdp6JVHGe4duX-pOj-2" value="autor" style="rounded=0;whiteSpace=wrap;html=1;fillColor=none;" vertex="1" parent="1">
          <mxGeometry x="14" y="90" width="80" height="40" as="geometry" />
        </mxCell>
        <mxCell id="PeIqdp6JVHGe4duX-pOj-33" style="rounded=0;orthogonalLoop=1;jettySize=auto;html=1;endArrow=none;startFill=0;" edge="1" parent="1" source="PeIqdp6JVHGe4duX-pOj-3" target="PeIqdp6JVHGe4duX-pOj-13">
          <mxGeometry relative="1" as="geometry" />
        </mxCell>
        <mxCell id="PeIqdp6JVHGe4duX-pOj-34" style="rounded=0;orthogonalLoop=1;jettySize=auto;html=1;endArrow=none;startFill=0;" edge="1" parent="1" source="PeIqdp6JVHGe4duX-pOj-3" target="PeIqdp6JVHGe4duX-pOj-14">
          <mxGeometry relative="1" as="geometry" />
        </mxCell>
        <mxCell id="PeIqdp6JVHGe4duX-pOj-35" style="rounded=0;orthogonalLoop=1;jettySize=auto;html=1;endArrow=none;startFill=0;" edge="1" parent="1" source="PeIqdp6JVHGe4duX-pOj-3" target="PeIqdp6JVHGe4duX-pOj-15">
          <mxGeometry relative="1" as="geometry" />
        </mxCell>
        <mxCell id="PeIqdp6JVHGe4duX-pOj-36" style="rounded=0;orthogonalLoop=1;jettySize=auto;html=1;endArrow=none;startFill=0;" edge="1" parent="1" source="PeIqdp6JVHGe4duX-pOj-3" target="PeIqdp6JVHGe4duX-pOj-16">
          <mxGeometry relative="1" as="geometry" />
        </mxCell>
        <mxCell id="PeIqdp6JVHGe4duX-pOj-3" value="usuario" style="rounded=0;whiteSpace=wrap;html=1;fillColor=none;" vertex="1" parent="1">
          <mxGeometry x="624" y="250" width="80" height="40" as="geometry" />
        </mxCell>
        <mxCell id="PeIqdp6JVHGe4duX-pOj-24" style="rounded=0;orthogonalLoop=1;jettySize=auto;html=1;endArrow=none;startFill=0;" edge="1" parent="1" source="PeIqdp6JVHGe4duX-pOj-5" target="PeIqdp6JVHGe4duX-pOj-23">
          <mxGeometry relative="1" as="geometry" />
        </mxCell>
        <mxCell id="PeIqdp6JVHGe4duX-pOj-42" style="rounded=0;orthogonalLoop=1;jettySize=auto;html=1;endArrow=none;startFill=0;" edge="1" parent="1" source="PeIqdp6JVHGe4duX-pOj-5" target="PeIqdp6JVHGe4duX-pOj-40">
          <mxGeometry relative="1" as="geometry" />
        </mxCell>
        <mxCell id="PeIqdp6JVHGe4duX-pOj-43" style="rounded=0;orthogonalLoop=1;jettySize=auto;html=1;endArrow=none;startFill=0;" edge="1" parent="1" source="PeIqdp6JVHGe4duX-pOj-5" target="PeIqdp6JVHGe4duX-pOj-41">
          <mxGeometry relative="1" as="geometry" />
        </mxCell>
        <mxCell id="PeIqdp6JVHGe4duX-pOj-5" value="ejemplar" style="rounded=0;whiteSpace=wrap;html=1;fillColor=none;" vertex="1" parent="1">
          <mxGeometry x="294" y="250" width="80" height="40" as="geometry" />
        </mxCell>
        <mxCell id="PeIqdp6JVHGe4duX-pOj-6" value="codigo" style="ellipse;whiteSpace=wrap;html=1;fontStyle=5" vertex="1" parent="1">
          <mxGeometry x="14" y="20" width="70" height="40" as="geometry" />
        </mxCell>
        <mxCell id="PeIqdp6JVHGe4duX-pOj-7" value="nombre" style="ellipse;whiteSpace=wrap;html=1;" vertex="1" parent="1">
          <mxGeometry x="94" y="20" width="70" height="40" as="geometry" />
        </mxCell>
        <mxCell id="PeIqdp6JVHGe4duX-pOj-8" value="codigo" style="ellipse;whiteSpace=wrap;html=1;fontStyle=5" vertex="1" parent="1">
          <mxGeometry x="214" y="40" width="70" height="40" as="geometry" />
        </mxCell>
        <mxCell id="PeIqdp6JVHGe4duX-pOj-9" value="numPaginas" style="ellipse;whiteSpace=wrap;html=1;" vertex="1" parent="1">
          <mxGeometry x="414" y="40" width="70" height="40" as="geometry" />
        </mxCell>
        <mxCell id="PeIqdp6JVHGe4duX-pOj-10" value="editorial" style="ellipse;whiteSpace=wrap;html=1;" vertex="1" parent="1">
          <mxGeometry x="434" y="90" width="70" height="40" as="geometry" />
        </mxCell>
        <mxCell id="PeIqdp6JVHGe4duX-pOj-11" value="ISBN" style="ellipse;whiteSpace=wrap;html=1;fontStyle=5" vertex="1" parent="1">
          <mxGeometry x="264" y="10" width="70" height="40" as="geometry" />
        </mxCell>
        <mxCell id="PeIqdp6JVHGe4duX-pOj-12" value="titulo" style="ellipse;whiteSpace=wrap;html=1;" vertex="1" parent="1">
          <mxGeometry x="344" y="10" width="70" height="40" as="geometry" />
        </mxCell>
        <mxCell id="PeIqdp6JVHGe4duX-pOj-13" value="codigo" style="ellipse;whiteSpace=wrap;html=1;fontStyle=5" vertex="1" parent="1">
          <mxGeometry x="654" y="170" width="70" height="40" as="geometry" />
        </mxCell>
        <mxCell id="PeIqdp6JVHGe4duX-pOj-14" value="nombre" style="ellipse;whiteSpace=wrap;html=1;" vertex="1" parent="1">
          <mxGeometry x="734" y="170" width="70" height="40" as="geometry" />
        </mxCell>
        <mxCell id="PeIqdp6JVHGe4duX-pOj-15" value="dirección" style="ellipse;whiteSpace=wrap;html=1;" vertex="1" parent="1">
          <mxGeometry x="744" y="230" width="70" height="40" as="geometry" />
        </mxCell>
        <mxCell id="PeIqdp6JVHGe4duX-pOj-16" value="telefono" style="ellipse;whiteSpace=wrap;html=1;" vertex="1" parent="1">
          <mxGeometry x="744" y="280" width="70" height="40" as="geometry" />
        </mxCell>
        <mxCell id="PeIqdp6JVHGe4duX-pOj-19" style="rounded=0;orthogonalLoop=1;jettySize=auto;html=1;endArrow=none;startFill=0;" edge="1" parent="1" source="PeIqdp6JVHGe4duX-pOj-17" target="PeIqdp6JVHGe4duX-pOj-1">
          <mxGeometry relative="1" as="geometry" />
        </mxCell>
        <mxCell id="PeIqdp6JVHGe4duX-pOj-17" value="tiene" style="rhombus;whiteSpace=wrap;html=1;" vertex="1" parent="1">
          <mxGeometry x="164" y="85" width="50" height="50" as="geometry" />
        </mxCell>
        <mxCell id="PeIqdp6JVHGe4duX-pOj-22" style="rounded=0;orthogonalLoop=1;jettySize=auto;html=1;endArrow=none;startFill=0;shape=link;" edge="1" parent="1" source="PeIqdp6JVHGe4duX-pOj-51" target="PeIqdp6JVHGe4duX-pOj-5">
          <mxGeometry relative="1" as="geometry" />
        </mxCell>
        <mxCell id="PeIqdp6JVHGe4duX-pOj-20" value="tiene" style="rhombus;whiteSpace=wrap;html=1;" vertex="1" parent="1">
          <mxGeometry x="309" y="170" width="50" height="50" as="geometry" />
        </mxCell>
        <mxCell id="PeIqdp6JVHGe4duX-pOj-25" style="rounded=0;orthogonalLoop=1;jettySize=auto;html=1;endArrow=none;startFill=0;" edge="1" parent="1" source="PeIqdp6JVHGe4duX-pOj-23" target="PeIqdp6JVHGe4duX-pOj-3">
          <mxGeometry relative="1" as="geometry">
            <mxPoint x="594" y="270" as="sourcePoint" />
          </mxGeometry>
        </mxCell>
        <mxCell id="PeIqdp6JVHGe4duX-pOj-23" value="prestamo" style="rhombus;whiteSpace=wrap;html=1;" vertex="1" parent="1">
          <mxGeometry x="494" y="245" width="50" height="50" as="geometry" />
        </mxCell>
        <mxCell id="PeIqdp6JVHGe4duX-pOj-40" value="codigo" style="ellipse;whiteSpace=wrap;html=1;fontStyle=5" vertex="1" parent="1">
          <mxGeometry x="174" y="230" width="70" height="40" as="geometry" />
        </mxCell>
        <mxCell id="PeIqdp6JVHGe4duX-pOj-41" value="localización" style="ellipse;whiteSpace=wrap;html=1;" vertex="1" parent="1">
          <mxGeometry x="214" y="295" width="70" height="40" as="geometry" />
        </mxCell>
        <mxCell id="PeIqdp6JVHGe4duX-pOj-48" style="rounded=0;orthogonalLoop=1;jettySize=auto;html=1;endArrow=none;startFill=0;" edge="1" parent="1" source="PeIqdp6JVHGe4duX-pOj-44" target="PeIqdp6JVHGe4duX-pOj-23">
          <mxGeometry relative="1" as="geometry" />
        </mxCell>
        <mxCell id="PeIqdp6JVHGe4duX-pOj-44" value="fechaPrestamo" style="ellipse;whiteSpace=wrap;html=1;" vertex="1" parent="1">
          <mxGeometry x="434" y="320" width="70" height="40" as="geometry" />
        </mxCell>
        <mxCell id="PeIqdp6JVHGe4duX-pOj-45" value="n:m" style="text;html=1;align=center;verticalAlign=middle;resizable=0;points=[];autosize=1;strokeColor=none;fillColor=none;" vertex="1" parent="1">
          <mxGeometry x="499" y="220" width="40" height="30" as="geometry" />
        </mxCell>
        <mxCell id="PeIqdp6JVHGe4duX-pOj-47" style="rounded=0;orthogonalLoop=1;jettySize=auto;html=1;endArrow=none;startFill=0;" edge="1" parent="1" source="PeIqdp6JVHGe4duX-pOj-46" target="PeIqdp6JVHGe4duX-pOj-23">
          <mxGeometry relative="1" as="geometry" />
        </mxCell>
        <mxCell id="PeIqdp6JVHGe4duX-pOj-46" value="fechaDevolución" style="ellipse;whiteSpace=wrap;html=1;" vertex="1" parent="1">
          <mxGeometry x="534" y="320" width="70" height="40" as="geometry" />
        </mxCell>
        <mxCell id="PeIqdp6JVHGe4duX-pOj-49" value="1:n" style="text;html=1;align=center;verticalAlign=middle;resizable=0;points=[];autosize=1;strokeColor=none;fillColor=none;" vertex="1" parent="1">
          <mxGeometry x="164" y="48" width="40" height="30" as="geometry" />
        </mxCell>
        <mxCell id="PeIqdp6JVHGe4duX-pOj-50" value="1:n" style="text;html=1;align=center;verticalAlign=middle;resizable=0;points=[];autosize=1;strokeColor=none;fillColor=none;" vertex="1" parent="1">
          <mxGeometry x="334" y="158" width="40" height="30" as="geometry" />
        </mxCell>
        <mxCell id="PeIqdp6JVHGe4duX-pOj-51" value="" style="rhombus;whiteSpace=wrap;html=1;fillColor=none;" vertex="1" parent="1">
          <mxGeometry x="303" y="165" width="62" height="60" as="geometry" />
        </mxCell>
      </root>
    </mxGraphModel>
  </diagram>
</mxfile>
